<svg width="632" height="392" viewBox="0 0 632 392" fill="none" xmlns="http://www.w3.org/2000/svg">
<g clip-path="url(#clip0_102_9)">
<path d="M509.503 231.42C503.712 233.469 493.548 235.128 481.788 236.445C449.812 240.031 406.011 241.151 406.011 241.151C406.011 241.151 180.791 258.283 12.378 189.81C12.378 189.81 -12.1054 177.156 10.7416 160.388C14.2593 157.883 17.9969 155.685 21.9109 153.82L22.1903 153.55C24.791 151.23 27.5996 149.141 30.5824 147.309C39.3496 141.843 54.1404 135.384 72.0941 138.427L514.929 210.371C514.929 210.371 531.053 223.776 509.503 231.42Z" fill="#3F3D56"/>
<path d="M421.354 199.345L514.43 135.639L555.287 142.724L514.929 210.371C514.929 210.371 422.366 210.654 421.354 199.345Z" fill="#3F3D56"/>
<path d="M187.971 159.271L373.005 109.639L402.762 115.847L319.113 152.047L292.892 180.368L187.971 159.271Z" fill="#3F3D56"/>
<path d="M481.788 236.445C449.812 240.031 406.011 241.151 406.011 241.151C406.011 241.151 180.791 258.283 12.378 189.81C12.378 189.81 -12.1055 177.156 10.7415 160.388L10.817 160.7C10.817 160.7 47.1123 184.853 220.977 205.694L481.788 236.445Z" fill="#EAE9F8"/>
<path d="M452.091 234.92L534.553 268.185L555.319 266.04L506.073 229.61C506.073 229.61 446.359 216.899 452.091 234.92Z" fill="#3F3D56"/>
<path d="M40.7584 164.354C36.8166 164.399 27.8159 157.914 22.22 153.55C24.8207 151.23 27.6293 149.141 30.6121 147.309C35.1235 150.716 43.1522 156.233 47.6333 156.041C54.1031 155.812 46.6948 164.278 40.7584 164.354Z" fill="#C6C4F4"/>
<path d="M415.234 348.384L362.177 350.838L213.502 252.133L185.902 233.806L172.498 224.901C197.825 204.258 300.625 233.38 300.625 233.38C302.588 235.01 303.203 237.706 303.1 240.681C302.902 246.252 300.184 252.779 299.137 255.128C298.886 255.703 298.731 256.008 298.731 256.008L415.234 348.384Z" fill="#3F3D56"/>
<path d="M240.781 296.747L231.552 302.379L237.173 292.526C235.6 291.291 233.65 290.602 231.631 290.567L231.483 290.567C230.845 290.576 230.207 290.526 229.578 290.419L226.456 292.331L227.799 289.972C225.597 289.208 223.699 287.786 222.373 285.909L216.788 289.344L220.333 283.12C217.096 279.292 212.716 276.936 207.88 276.913C202.086 276.885 196.91 280.218 193.553 285.439C192.558 287.002 191.155 288.281 189.488 289.144C187.82 290.008 185.948 290.425 184.061 290.354L183.753 290.352C177.355 290.322 172.138 297.363 172.096 306.083C172.055 314.803 177.206 321.893 183.604 321.923C185.01 321.925 186.395 321.593 187.639 320.956C189.822 319.937 192.206 319.391 194.627 319.356C197.047 319.322 199.447 319.8 201.66 320.757C203.532 321.581 205.56 322.013 207.614 322.022C209.668 322.032 211.7 321.62 213.579 320.813C215.783 319.895 218.163 319.449 220.56 319.505C222.956 319.561 225.312 320.118 227.468 321.139C228.699 321.772 230.067 322.108 231.458 322.121C237.856 322.151 243.074 315.11 243.115 306.39C243.177 303.036 242.374 299.721 240.781 296.747Z" fill="#F2F2F2"/>
<path opacity="0.03" d="M223.361 319.764C220.022 319.132 216.566 319.481 213.432 320.767C211.554 321.575 209.522 321.988 207.469 321.979C205.416 321.969 203.388 321.537 201.518 320.71C199.306 319.75 196.906 319.271 194.485 319.306C192.064 319.34 189.679 319.887 187.497 320.909C186.25 321.545 184.863 321.877 183.456 321.876C177.775 321.85 173.072 316.244 172.125 308.88C173.265 308.081 174.235 307.073 174.98 305.912C178.336 300.697 183.513 297.365 189.307 297.392C195.1 297.419 200.192 300.731 203.494 305.937C204.479 307.507 205.864 308.801 207.513 309.695C209.163 310.589 211.022 311.052 212.909 311.04L213.057 311.041C217.579 311.051 221.48 314.599 223.361 319.764Z" fill="black"/>
<path d="M500.625 290.478L491.395 296.109L497.017 286.256C495.444 285.021 493.494 284.332 491.475 284.298L491.327 284.297C490.689 284.306 490.051 284.257 489.422 284.15L486.3 286.061L487.643 283.703C485.441 282.938 483.542 281.516 482.217 279.64L476.632 283.074L480.176 276.85C476.939 273.023 472.559 270.666 467.724 270.643C461.93 270.616 456.754 273.948 453.397 279.169C452.401 280.733 450.999 282.011 449.331 282.875C447.664 283.738 445.791 284.155 443.904 284.084L443.597 284.083C437.199 284.053 431.981 291.093 431.94 299.814C431.899 308.534 437.05 315.623 443.447 315.654C444.853 315.656 446.238 315.324 447.482 314.687C449.665 313.667 452.05 313.121 454.47 313.087C456.891 313.053 459.291 313.53 461.504 314.487C463.375 315.312 465.404 315.743 467.458 315.753C469.511 315.762 471.544 315.351 473.423 314.544C475.627 313.625 478.007 313.179 480.403 313.235C482.8 313.291 485.156 313.848 487.312 314.869C488.542 315.502 489.911 315.839 491.302 315.851C497.7 315.881 502.917 308.841 502.958 300.12C503.02 296.767 502.218 293.451 500.625 290.478V290.478Z" fill="#F2F2F2"/>
<path opacity="0.03" d="M483.205 313.494C479.866 312.862 476.41 313.211 473.275 314.497C471.398 315.306 469.366 315.719 467.313 315.709C465.26 315.699 463.232 315.267 461.362 314.441C459.15 313.481 456.75 313.002 454.328 313.036C451.907 313.07 449.523 313.618 447.341 314.64C446.094 315.275 444.707 315.607 443.3 315.607C437.618 315.58 432.916 309.975 431.968 302.611C433.109 301.812 434.079 300.804 434.823 299.643C438.18 294.427 443.356 291.095 449.15 291.123C454.944 291.15 460.036 294.461 463.338 299.668C464.325 301.241 465.715 302.538 467.37 303.433C469.025 304.327 470.89 304.788 472.783 304.771L472.931 304.771C477.423 304.781 481.324 308.329 483.205 313.494Z" fill="black"/>
<path d="M501.519 101.307L492.289 106.939L497.911 97.0855C496.338 95.8506 494.388 95.1615 492.369 95.1272L492.221 95.1265C491.583 95.1356 490.945 95.0863 490.316 94.9791L487.194 96.8907L488.537 94.5323C486.335 93.7676 484.436 92.3459 483.111 90.4694L477.526 93.9035L481.071 87.6798C477.834 83.8522 473.453 81.4956 468.618 81.4728C462.824 81.4454 457.648 84.7776 454.291 89.9987C453.296 91.5622 451.893 92.8407 450.225 93.7041C448.558 94.5675 446.686 94.9849 444.799 94.9139L444.491 94.9124C438.093 94.8822 432.876 101.923 432.834 110.643C432.793 119.363 437.944 126.453 444.342 126.483C445.747 126.485 447.132 126.153 448.377 125.516C450.56 124.496 452.944 123.951 455.364 123.916C457.785 123.882 460.185 124.36 462.398 125.317C464.267 126.146 466.295 126.582 468.348 126.597C470.402 126.611 472.436 126.204 474.317 125.402C476.521 124.484 478.901 124.037 481.297 124.093C483.694 124.15 486.05 124.707 488.206 125.727C489.436 126.36 490.805 126.697 492.196 126.709C498.594 126.74 503.811 119.699 503.852 110.979C503.919 107.615 503.117 104.289 501.519 101.307V101.307Z" fill="#F2F2F2"/>
<path opacity="0.03" d="M484.099 124.324C480.76 123.692 477.304 124.041 474.169 125.326C472.292 126.135 470.26 126.548 468.207 126.538C466.154 126.529 464.126 126.097 462.256 125.27C460.044 124.31 457.644 123.831 455.223 123.865C452.801 123.9 450.417 124.447 448.235 125.469C446.988 126.105 445.601 126.437 444.194 126.436C438.512 126.409 433.81 120.804 432.863 113.44C434.003 112.641 434.973 111.633 435.717 110.472C439.074 105.257 444.251 101.925 450.044 101.952C455.838 101.979 460.93 105.291 464.232 110.497C465.219 112.071 466.609 113.368 468.264 114.262C469.92 115.157 471.784 115.617 473.677 115.6L473.825 115.601C478.317 115.61 482.218 119.159 484.099 124.324Z" fill="black"/>
<path d="M121.656 79.1003L117.056 81.9104L119.861 76.9982C119.078 76.3788 118.104 76.033 117.096 76.0162L117.025 76.0158C116.706 76.0175 116.387 75.9929 116.073 75.9421L114.518 76.8922L115.186 75.7418C114.087 75.361 113.14 74.6521 112.479 73.7162L109.695 75.4333L111.485 72.333C110.751 71.3991 109.813 70.6363 108.738 70.1005C107.664 69.5646 106.48 69.269 105.274 69.2353C102.386 69.2217 99.8034 70.8821 98.1517 73.487C97.6546 74.2689 96.9531 74.908 96.1192 75.3388C95.2852 75.7696 94.3487 75.9767 93.4055 75.9388L93.2516 75.9381C90.0617 75.923 87.4588 79.4404 87.4382 83.789C87.4176 88.1376 89.9872 91.6737 93.1771 91.6888C93.8787 91.6899 94.57 91.5249 95.1916 91.2081C96.2804 90.6979 97.4701 90.4247 98.6781 90.4075C99.8862 90.3903 101.084 90.6295 102.188 91.1085C103.117 91.5164 104.124 91.7297 105.144 91.7345C106.163 91.7393 107.172 91.5356 108.106 91.1365C109.205 90.6778 110.393 90.4552 111.589 90.4837C112.785 90.5123 113.96 90.7913 115.035 91.3019C115.649 91.6149 116.329 91.7821 117.022 91.79C120.211 91.8051 122.814 88.2934 122.835 83.9448C122.865 82.2593 122.46 80.5933 121.656 79.1003Z" fill="#F2F2F2"/>
<path opacity="0.03" d="M112.967 90.5827C111.301 90.2635 109.575 90.4382 108.011 91.0841C107.077 91.4809 106.068 91.6843 105.049 91.6815C104.019 91.6763 103.001 91.4572 102.064 91.0387C100.959 90.5617 99.7614 90.3241 98.5535 90.3423C97.3456 90.3605 96.1563 90.6341 95.0676 91.1441C94.4481 91.4609 93.7587 91.6259 93.059 91.6248C90.2242 91.6114 87.876 88.8146 87.4022 85.1442C87.9695 84.7426 88.4538 84.24 88.8296 83.6629C90.499 81.0581 93.0813 79.3977 95.9516 79.4113C98.822 79.4249 101.377 81.0922 103.033 83.6782C103.527 84.4644 104.222 85.1122 105.05 85.558C105.878 86.0038 106.81 86.2322 107.756 86.2209L107.833 86.2212C110.064 86.2318 112.027 88.0059 112.967 90.5827Z" fill="black"/>
<path d="M528.678 363.056L524.078 365.866L526.883 360.954C526.1 360.335 525.126 359.989 524.118 359.972L524.047 359.972C523.728 359.973 523.409 359.949 523.094 359.898L521.539 360.848L522.207 359.698C521.109 359.317 520.162 358.608 519.5 357.672L516.717 359.389L518.507 356.289C517.773 355.355 516.835 354.592 515.76 354.056C514.685 353.52 513.502 353.225 512.295 353.191C509.407 353.178 506.825 354.838 505.173 357.443C504.676 358.225 503.975 358.864 503.141 359.295C502.307 359.725 501.37 359.933 500.427 359.895L500.273 359.894C497.083 359.879 494.48 363.396 494.46 367.745C494.439 372.093 497.009 375.63 500.199 375.645C500.9 375.646 501.592 375.481 502.213 375.164C503.302 374.654 504.492 374.381 505.7 374.363C506.908 374.346 508.105 374.585 509.209 375.064C510.139 375.472 511.146 375.686 512.165 375.69C513.185 375.695 514.194 375.491 515.127 375.092C516.227 374.634 517.415 374.411 518.61 374.44C519.806 374.468 520.982 374.747 522.057 375.258C522.67 375.571 523.351 375.738 524.043 375.746C527.233 375.761 529.836 372.249 529.856 367.901C529.887 366.215 529.482 364.549 528.678 363.056V363.056Z" fill="#F2F2F2"/>
<path opacity="0.03" d="M519.989 374.539C518.322 374.219 516.596 374.394 515.033 375.04C514.099 375.437 513.09 375.64 512.071 375.637C511.04 375.632 510.022 375.413 509.085 374.995C507.981 374.518 506.783 374.28 505.575 374.298C504.367 374.316 503.178 374.59 502.089 375.1C501.47 375.417 500.78 375.582 500.081 375.581C497.246 375.567 494.898 372.77 494.424 369.1C494.991 368.698 495.475 368.196 495.851 367.619C497.521 365.014 500.103 363.354 502.973 363.367C505.844 363.381 508.398 365.048 510.055 367.634C510.549 368.42 511.244 369.068 512.071 369.514C512.899 369.96 513.832 370.188 514.778 370.177L514.855 370.177C517.086 370.188 519.048 371.962 519.989 374.539Z" fill="black"/>
<path d="M102.498 376.037L97.8978 378.847L100.703 373.935C99.9195 373.316 98.9459 372.97 97.9375 372.953L97.8665 372.953C97.5475 372.954 97.2288 372.93 96.914 372.879L95.3589 373.829L96.0272 372.679C94.9287 372.298 93.9814 371.589 93.3203 370.653L90.5365 372.37L92.3266 369.27C91.5928 368.336 90.6544 367.573 89.5798 367.037C88.5053 366.501 87.3217 366.206 86.1152 366.172C83.2271 366.159 80.6448 367.819 78.9931 370.424C78.496 371.206 77.7946 371.845 76.9606 372.276C76.1266 372.706 75.1901 372.914 74.2469 372.876L74.093 372.875C70.9031 372.86 68.3002 376.377 68.2796 380.726C68.2591 385.075 70.8287 388.611 74.0186 388.626C74.7201 388.627 75.4115 388.462 76.0331 388.145C77.1218 387.635 78.3115 387.362 79.5196 387.344C80.7277 387.327 81.9252 387.566 83.029 388.045C83.9586 388.453 84.9657 388.667 85.9852 388.671C87.0046 388.676 88.0137 388.472 88.9472 388.073C90.0466 387.615 91.2345 387.392 92.4302 387.421C93.626 387.449 94.8014 387.728 95.8767 388.239C96.4901 388.552 97.1707 388.719 97.863 388.727C101.053 388.742 103.656 385.23 103.676 380.882C103.707 379.196 103.301 377.53 102.498 376.037V376.037Z" fill="#F2F2F2"/>
<path opacity="0.03" d="M93.8087 387.52C92.1423 387.2 90.4161 387.375 88.8527 388.021C87.9185 388.418 86.9099 388.621 85.8908 388.618C84.86 388.613 83.8422 388.394 82.9051 387.976C81.8005 387.499 80.6029 387.261 79.395 387.279C78.1871 387.297 76.9978 387.571 75.9091 388.081C75.2896 388.398 74.6002 388.563 73.9005 388.562C71.0657 388.548 68.7175 385.751 68.2436 382.081C68.811 381.679 69.2953 381.177 69.671 380.6C71.3405 377.995 73.9228 376.335 76.7931 376.348C79.6634 376.362 82.2182 378.029 83.8749 380.615C84.3686 381.401 85.0635 382.049 85.8914 382.495C86.7193 382.941 87.6519 383.169 88.5976 383.158L88.6745 383.158C90.9057 383.169 92.8681 384.943 93.8087 387.52Z" fill="black"/>
<path d="M316.062 21.4154L306.832 27.047L312.454 17.1938C310.881 15.9589 308.931 15.2699 306.912 15.2355L306.764 15.2348C306.125 15.2439 305.487 15.1946 304.859 15.0874L301.737 16.999L303.079 14.6406C300.877 13.8759 298.979 12.4542 297.654 10.5777L292.068 14.0118L295.613 7.78813C292.376 3.9605 287.996 1.60394 283.161 1.58109C277.367 1.5537 272.19 4.88593 268.834 10.107C267.838 11.6705 266.435 12.949 264.768 13.8124C263.101 14.6758 261.228 15.0932 259.341 15.0222L259.033 15.0207C252.636 14.9905 247.418 22.031 247.377 30.7513C247.336 39.4716 252.487 46.5612 258.884 46.5914C260.29 46.5937 261.675 46.2617 262.919 45.6243C265.102 44.6048 267.486 44.059 269.907 44.0247C272.328 43.9903 274.727 44.4682 276.941 45.4252C278.81 46.2542 280.837 46.6902 282.891 46.7049C284.945 46.7196 286.978 46.3126 288.86 45.5104C291.063 44.5919 293.444 44.1457 295.84 44.2018C298.236 44.2579 300.592 44.8151 302.748 45.8356C303.979 46.4688 305.347 46.8055 306.739 46.8176C313.136 46.8479 318.354 39.8073 318.395 31.087C318.462 27.7236 317.659 24.3977 316.062 21.4154V21.4154Z" fill="#F2F2F2"/>
<path opacity="0.03" d="M298.642 44.432C295.303 43.8 291.847 44.149 288.712 45.4347C286.834 46.2435 284.802 46.6565 282.749 46.6468C280.696 46.6371 278.669 46.2049 276.799 45.3784C274.586 44.4187 272.186 43.9394 269.765 43.9738C267.344 44.0081 264.96 44.5553 262.777 45.5774C261.53 46.213 260.144 46.5448 258.736 46.5446C253.055 46.5177 248.353 40.9125 247.405 33.5487C248.546 32.7496 249.515 31.7413 250.26 30.5804C253.617 25.3651 258.793 22.0329 264.587 22.0603C270.381 22.0877 275.473 25.3992 278.774 30.6056C279.762 32.179 281.151 33.4762 282.807 34.3705C284.462 35.2648 286.327 35.7258 288.219 35.7084L288.367 35.7091C292.859 35.7187 296.76 39.2669 298.642 44.432Z" fill="black"/>
<path d="M629.246 121.872L624.646 124.682L627.451 119.77C626.667 119.151 625.694 118.805 624.686 118.788L624.615 118.788C624.295 118.79 623.977 118.765 623.662 118.714L622.107 119.664L622.775 118.514C621.677 118.133 620.729 117.424 620.068 116.488L617.284 118.205L619.075 115.105C618.341 114.171 617.402 113.408 616.328 112.872C615.253 112.337 614.07 112.041 612.863 112.007C609.975 111.994 607.393 113.654 605.741 116.259C605.244 117.041 604.542 117.68 603.708 118.111C602.874 118.542 601.938 118.749 600.995 118.711L600.841 118.71C597.651 118.695 595.048 122.212 595.027 126.561C595.007 130.91 597.576 134.446 600.766 134.461C601.468 134.462 602.159 134.297 602.781 133.98C603.87 133.47 605.059 133.197 606.267 133.179C607.476 133.162 608.673 133.401 609.777 133.88C610.707 134.288 611.714 134.502 612.733 134.506C613.753 134.511 614.762 134.308 615.695 133.908C616.795 133.45 617.982 133.227 619.178 133.256C620.374 133.284 621.549 133.563 622.625 134.074C623.238 134.387 623.919 134.554 624.611 134.562C627.801 134.577 630.404 131.065 630.424 126.717C630.455 125.031 630.049 123.365 629.246 121.872V121.872Z" fill="#F2F2F2"/>
<path opacity="0.03" d="M620.556 133.355C618.89 133.035 617.164 133.21 615.6 133.856C614.666 134.253 613.658 134.456 612.638 134.453C611.618 134.444 610.61 134.225 609.682 133.811C608.578 133.334 607.38 133.096 606.172 133.114C604.965 133.133 603.775 133.406 602.686 133.916C602.067 134.233 601.378 134.398 600.678 134.397C597.843 134.384 595.495 131.587 595.021 127.916C595.588 127.515 596.073 127.012 596.448 126.435C598.118 123.83 600.7 122.17 603.57 122.183C606.441 122.197 608.996 123.864 610.652 126.45C611.143 127.232 611.834 127.877 612.656 128.323C613.478 128.768 614.405 128.999 615.345 128.993L615.422 128.993C617.653 129.004 619.616 130.778 620.556 133.355Z" fill="black"/>
</g>
<defs>
<clipPath id="clip0_102_9">
<rect width="629.187" height="388" fill="white" transform="translate(1.83405 0.245514) rotate(0.270829)"/>
</clipPath>
</defs>
</svg>
