<svg width="92" height="46" viewBox="0 0 92 46" fill="none" xmlns="http://www.w3.org/2000/svg">
<path d="M20.0845 21.3467C23.9311 21.3467 27.0493 18.6117 27.0493 15.238C27.0493 11.8642 23.9311 9.12921 20.0845 9.12921C16.238 9.12921 13.1198 11.8642 13.1198 15.238C13.1198 18.6117 16.238 21.3467 20.0845 21.3467Z" fill="#FF6584"/>
<path d="M89.1168 43.4569C88.7073 43.7801 88.2765 44.0821 87.8267 44.3611C86.7592 45.0196 85.6056 45.5636 84.3905 45.9813C79.341 45.8748 71.9179 45.3314 62.5478 45.0416C61.8489 44.8321 61.1341 44.6052 60.4033 44.3611C59.4363 44.0379 58.4415 43.6828 57.419 43.2956C53.1721 41.686 48.8118 40.6397 44.4928 40.0147C43.5647 39.8804 42.639 39.7653 41.7158 39.6694C22.2128 37.6237 4.22741 43.6344 2.14445 44.3611H1.9436L3.2248 42.1847L25.0246 5.15143L30.1227 16.6316L31.7497 20.2962L36.2338 14.8992L38.5492 12.1126L49.0936 22.7155L52.0739 16.9427L72.7075 31.7117L73.8583 32.535L75.0229 33.3689L75.3938 33.6346L86.4249 41.5305L89.1168 43.4569Z" fill="#F2F2F2"/>
<path opacity="0.1" d="M23.0809 12.6098L25.1866 8.56097L28.1021 14.4566L25.5915 10.1947L23.0809 12.6098Z" fill="black"/>
<path opacity="0.1" d="M44.4929 40.0146C43.5648 39.8804 42.6391 39.7653 41.7159 39.6694L31.7498 20.2961L44.4929 40.0146Z" fill="black"/>
<path opacity="0.1" d="M36.234 14.8991L38.5493 13.3201L49.0775 23.9749L38.3873 14.8828L36.234 14.8991Z" fill="black"/>
<path opacity="0.1" d="M49.0934 22.7153L70.1338 40.3834L67.2559 40.9787L49.0934 22.7153Z" fill="black"/>
<path d="M92 44.3966C92 45.7725 89.3307 46.0858 84.3906 45.9814C79.3411 45.8748 71.9179 45.3314 62.5479 45.0416C59.0039 44.9322 55.1806 44.8583 51.1021 44.8583C25.6968 44.8583 0 47.7117 0 44.3966C0 43.6153 1.14352 42.8694 3.22486 42.1847C9.39599 40.1546 23.8099 38.6679 41.0777 38.4285C41.8632 38.4172 42.6545 38.4089 43.4514 38.4037C44.2953 38.3973 45.1448 38.3942 46 38.3944C52.8652 38.3944 59.3797 38.5905 65.2309 38.9421C65.2495 38.9435 65.2674 38.9449 65.286 38.9456C65.7557 38.974 66.2208 39.0034 66.6814 39.0337C67.1843 39.0671 67.6818 39.1014 68.174 39.1367C68.2752 39.1438 68.3764 39.1509 68.4768 39.1587C68.5497 39.1637 68.6226 39.1694 68.6947 39.1751C68.8275 39.1843 68.9603 39.1942 69.0915 39.2049C69.0961 39.2048 69.1007 39.205 69.1053 39.2056C69.3466 39.2241 69.5863 39.2425 69.8244 39.261C69.8495 39.2631 69.8747 39.2653 69.8998 39.2667C76.82 39.8172 82.5392 40.5993 86.4249 41.5305C89.9802 42.3822 92 43.3581 92 44.3966Z" fill="#3F3D56"/>
<path d="M5.74084 32.5456C5.74084 37.0928 8.99327 40.7723 13.0126 40.7723L5.74084 32.5456Z" fill="#3F3D56"/>
<path d="M13.0126 40.7723C13.0126 36.174 16.6421 32.4531 21.1275 32.4531L13.0126 40.7723Z" fill="#6C63FF"/>
<path d="M8.37549 32.9578C8.37549 37.2772 10.4495 40.7723 13.0126 40.7723L8.37549 32.9578Z" fill="#6C63FF"/>
<path d="M13.0126 40.7723C13.0126 34.8967 17.2077 30.1423 22.3921 30.1423L13.0126 40.7723Z" fill="#3F3D56"/>
<path d="M11.4828 40.8303C11.4828 40.8303 12.514 40.8024 12.8248 40.6083C13.1356 40.4142 14.4112 40.1824 14.4883 40.4938C14.5654 40.8051 16.0381 42.0421 14.8738 42.0503C13.7095 42.0586 12.1685 41.8913 11.8583 41.7255C11.5481 41.5598 11.4828 40.8303 11.4828 40.8303Z" fill="#A8A8A8"/>
<path opacity="0.2" d="M14.8946 41.942C13.7303 41.9502 12.1893 41.7829 11.8791 41.6172C11.6428 41.491 11.5487 41.0381 11.5172 40.8292C11.4954 40.83 11.4828 40.8303 11.4828 40.8303C11.4828 40.8303 11.5481 41.5598 11.8583 41.7256C12.1685 41.8913 13.7095 42.0586 14.8738 42.0504C15.2099 42.048 15.326 41.9431 15.3196 41.7878C15.2729 41.8816 15.1447 41.9402 14.8946 41.942Z" fill="black"/>
<path d="M61.7831 31.9063C61.7831 36.4535 65.0355 40.133 69.0549 40.133L61.7831 31.9063Z" fill="#3F3D56"/>
<path d="M69.0549 40.133C69.0549 35.5347 72.6844 31.8138 77.1698 31.8138L69.0549 40.133Z" fill="#6C63FF"/>
<path d="M64.4178 32.3185C64.4178 36.6379 66.4918 40.1331 69.0549 40.1331L64.4178 32.3185Z" fill="#6C63FF"/>
<path d="M69.0549 40.133C69.0549 34.2574 73.25 29.503 78.4344 29.503L69.0549 40.133Z" fill="#3F3D56"/>
<path d="M67.5251 40.191C67.5251 40.191 68.5563 40.1632 68.8671 39.9691C69.1779 39.7749 70.4535 39.5432 70.5306 39.8545C70.6077 40.1658 72.0804 41.4028 70.9161 41.411C69.7518 41.4193 68.2108 41.252 67.9006 41.0862C67.5904 40.9205 67.5251 40.191 67.5251 40.191Z" fill="#A8A8A8"/>
<path opacity="0.2" d="M70.9369 41.3026C69.7726 41.3109 68.2316 41.1436 67.9214 40.9779C67.6851 40.8516 67.591 40.3988 67.5595 40.1898C67.5377 40.1906 67.5251 40.191 67.5251 40.191C67.5251 40.191 67.5904 40.9205 67.9006 41.0862C68.2108 41.252 69.7518 41.4193 70.9161 41.411C71.2522 41.4086 71.3683 41.3038 71.3619 41.1484C71.3152 41.2423 71.187 41.3009 70.9369 41.3026Z" fill="black"/>
<path d="M40.412 31.2881H38.9542V33.5673H40.412V31.2881Z" fill="#3F3D56"/>
<path d="M39.683 32.1498C39.8406 32.1498 39.9683 32.0378 39.9683 31.8996C39.9683 31.7615 39.8406 31.6495 39.683 31.6495C39.5255 31.6495 39.3978 31.7615 39.3978 31.8996C39.3978 32.0378 39.5255 32.1498 39.683 32.1498Z" fill="#F2F2F2"/>
<path d="M39.8598 29.3404C39.8598 29.3404 39.4162 31.5974 40.2148 31.6753C41.0134 31.7531 40.3035 29.2626 40.3035 29.2626L39.8598 29.3404Z" fill="#FFB9B9"/>
<path d="M40.3923 21.6354C40.3923 21.6354 39.4606 29.3794 39.7268 29.4961C39.993 29.6128 40.7029 29.7685 40.836 29.6518C40.9691 29.535 41.5015 24.7485 41.5015 24.7485L41.1022 22.258L40.3923 21.6354Z" fill="#575A89"/>
<path opacity="0.1" d="M40.3923 21.6354C40.3923 21.6354 39.4606 29.3794 39.7268 29.4961C39.993 29.6128 40.7029 29.7685 40.836 29.6518C40.9691 29.535 41.5015 24.7485 41.5015 24.7485L41.1022 22.258L40.3923 21.6354Z" fill="black"/>
<path d="M44.8955 18.1525H42.1003V20.7987H44.8955V18.1525Z" fill="#2F2E41"/>
<path d="M42.7438 19.3394C42.7438 19.3394 42.655 21.0517 42.0339 21.1684C41.4127 21.2851 42.6107 23.2698 42.6107 23.2698L44.4741 23.1141L44.9178 20.7793C44.9178 20.7793 43.8973 20.6236 44.2523 19.4172L42.7438 19.3394Z" fill="#FFB9B9"/>
<path opacity="0.1" d="M42.7438 19.3394C42.7438 19.3394 42.655 21.0517 42.0339 21.1684C41.4127 21.2851 42.6107 23.2698 42.6107 23.2698L44.4741 23.1141L44.9178 20.7793C44.9178 20.7793 43.8973 20.6236 44.2523 19.4172L42.7438 19.3394Z" fill="black"/>
<path d="M42.8325 38.9134L42.9656 39.5749L43.7643 39.4193L43.5867 38.7577L42.8325 38.9134Z" fill="#FFB9B9"/>
<path d="M45.3614 37.9016L45.0952 38.6021L45.9382 38.9912L45.9826 38.4075L45.3614 37.9016Z" fill="#FFB9B9"/>
<path d="M41.9007 27.3947C41.9007 27.3947 40.8359 30.1187 41.0577 31.4029C41.2796 32.6871 42.1669 38.7967 42.1669 38.7967C42.1669 38.7967 43.1874 39.3804 43.8085 38.7188L43.3649 33.5043C43.3649 33.5043 43.4536 30.3522 43.8085 30.6635C44.1635 30.9748 45.5389 34.6328 45.5389 34.6328L45.2727 37.9405C45.2727 37.9405 45.4058 38.9523 46.2044 38.5243L47.3136 34.8663C47.3136 34.8663 46.9586 29.9631 46.7812 29.7685C46.6037 29.5739 45.4501 27.3169 45.4501 27.3169L41.9007 27.3947Z" fill="#2F2E41"/>
<path d="M43.6532 20.0982C44.3638 20.0982 44.9399 19.593 44.9399 18.9697C44.9399 18.3464 44.3638 17.8412 43.6532 17.8412C42.9426 17.8412 42.3666 18.3464 42.3666 18.9697C42.3666 19.593 42.9426 20.0982 43.6532 20.0982Z" fill="#FFB9B9"/>
<path d="M42.3445 21.7521C42.3445 21.7521 42.8325 22.3747 43.4536 21.9466C44.0748 21.5186 44.4297 21.4797 44.4297 21.4797L45.184 21.8688L45.0065 23.3865L45.2727 27.5892C45.2727 27.5892 42.0339 27.8227 41.8564 27.5114C41.6789 27.2001 42.0782 25.877 42.0782 25.877L41.5015 23.0363V21.7521H42.3445Z" fill="#6C63FF"/>
<path d="M43.3649 22.8806C43.3649 22.8806 42.5663 20.7403 42.3001 20.7014C42.0338 20.6625 41.2796 21.1295 41.2796 21.1295C41.2796 21.1295 40.1704 21.4408 40.1704 21.6353C40.1704 21.8299 40.3479 21.8299 40.3479 21.8299L40.969 22.8806C40.969 22.8806 41.2352 23.8146 41.1465 24.4372C41.093 24.8114 41.0781 25.1891 41.1021 25.5657C41.1021 25.5657 40.126 30.7024 40.6141 30.8581C41.1021 31.0137 41.1021 31.1694 41.1021 31.1694C41.1021 31.1694 41.812 31.5196 41.9451 31.364C42.0782 31.2083 43.3649 24.515 43.3649 24.515C43.3649 24.515 44.0304 23.3865 43.3649 22.8806Z" fill="#575A89"/>
<path d="M43.5424 22.8806C43.5424 22.8806 43.9417 22.0634 43.7198 21.5186C43.7198 21.5186 43.9417 21.4797 44.0304 21.363C44.1191 21.2462 44.0304 20.6625 44.2522 20.6236C44.4741 20.5847 46.1157 20.6236 46.2044 20.7014C46.2931 20.7793 46.5594 21.3241 46.5594 21.3241H46.4263L45.4502 22.725C45.4502 22.725 45.9382 25.3712 45.8495 25.7992C45.7607 26.2273 47.1361 28.0174 47.3136 28.1341C47.4911 28.2508 48.2897 30.1187 47.9348 30.3133C47.5798 30.5079 44.4741 31.7531 44.341 31.1305C44.2079 30.5079 43.2761 26.7721 43.2761 26.7721C43.2761 26.7721 43.2318 24.7096 43.3649 24.2037C43.498 23.6978 43.5424 22.8806 43.5424 22.8806Z" fill="#575A89"/>
<path d="M45.6276 29.1069C45.6276 29.1069 44.6959 31.792 45.6276 31.6753C46.5593 31.5585 46.3375 29.0291 46.3375 29.0291L45.6276 29.1069Z" fill="#FFB9B9"/>
<path d="M43.6774 39.4206C43.6774 39.4206 44.413 39.605 44.3604 40.0197C44.344 40.1402 44.2916 40.2548 44.2086 40.3519C44.1256 40.449 44.0149 40.5252 43.8876 40.5727C43.8105 40.6166 43.7497 40.6792 43.7124 40.7528C43.6751 40.8264 43.6629 40.9079 43.6774 40.9875C43.7299 41.264 43.2571 41.6787 42.4689 41.4944C41.6808 41.3101 41.8384 41.1257 41.8384 41.1257C41.8813 40.9213 42.0132 40.7395 42.2062 40.6188C42.5215 40.4345 42.8893 39.7893 42.8893 39.7432C42.8893 39.6971 42.9943 39.3746 42.9943 39.3746C42.9943 39.3746 43.4147 39.1441 43.6774 39.4206Z" fill="#2F2E41"/>
<path d="M45.2283 38.5242C45.2283 38.5242 44.4297 38.8355 44.6072 39.2247C44.7846 39.6138 45.3614 40.1586 45.4501 40.7424C45.5389 41.3261 46.2931 41.832 46.8255 41.5206C47.3579 41.2093 46.7368 40.5867 46.7368 40.5867C46.7368 40.5867 46.0713 39.4971 46.0269 39.2636C45.9825 39.0301 46.1157 38.7966 45.8494 38.7188C45.5832 38.641 45.2283 38.5242 45.2283 38.5242Z" fill="#2F2E41"/>
<path opacity="0.1" d="M46.4041 21.7326C46.4041 21.7326 46.2932 21.2851 46.4263 21.5575C46.5594 21.8299 47.5355 25.1377 46.6481 27.1223C46.6481 27.1223 46.5594 29.5739 46.4707 29.5739C46.3819 29.5739 45.3171 29.535 45.3615 29.2626C45.4058 28.9902 45.4946 24.5929 45.4946 24.3205C45.4946 24.0481 45.6498 22.2774 45.6498 22.2774L46.4041 21.7326Z" fill="black"/>
<path d="M46.2044 21.0516C46.3466 21.2064 46.4659 21.3764 46.5594 21.5575C46.6925 21.8299 47.6686 25.1377 46.7812 27.1223C46.7812 27.1223 46.6925 29.5739 46.6037 29.5739C46.515 29.5739 45.4502 29.535 45.4946 29.2626C45.5389 28.9902 45.6277 24.5929 45.6277 24.3205C45.6277 24.0481 45.3615 22.2191 45.3615 22.2191L46.2044 21.0516Z" fill="#575A89"/>
<path d="M42.928 16.9829C42.4625 17.1106 42.1149 17.4441 41.7909 17.7639C41.6649 17.877 41.5581 18.0053 41.4736 18.145C41.3913 18.323 41.3478 18.513 41.3454 18.7051C41.3238 19.0029 41.3169 19.301 41.3247 19.5997C41.3322 19.8857 41.3522 20.179 41.2519 20.4513C41.155 20.7145 40.9532 20.9371 40.8146 21.1856C40.5935 21.582 40.5425 22.0631 40.7466 22.4664C40.8589 22.6885 41.0407 22.8775 41.1766 23.0891C41.4167 23.4661 41.5057 23.9029 41.4292 24.3295L42.0681 23.6036C42.4773 23.1387 42.8995 22.6488 43.0146 22.0702C43.1816 21.2309 42.6711 20.4089 42.5704 19.5616C42.5423 19.3253 42.5518 19.0701 42.7043 18.8738C42.9293 18.5839 43.4189 18.4816 43.5542 18.1516C43.5738 18.2898 44.5175 18.7298 44.6312 18.6442C44.7011 18.8097 44.7214 18.9881 44.6902 19.1624C44.659 19.3367 44.5773 19.5011 44.4529 19.6397C44.3615 19.7392 44.2493 19.8229 44.1602 19.9239C43.9294 20.1856 43.8769 20.5385 43.9095 20.868C43.9421 21.1976 44.0502 21.5177 44.1074 21.8447C44.1558 22.1703 44.1789 22.4983 44.1765 22.8266C44.1808 23.0539 44.1737 23.3075 43.9919 23.4696C44.2899 23.378 44.5622 23.2316 44.7906 23.0403C44.9145 22.922 45.0476 22.8114 45.1889 22.7092C45.4747 22.5283 45.8619 22.4747 46.095 22.2429C46.3032 22.036 46.3364 21.7324 46.2875 21.4597C46.2386 21.1871 46.1194 20.9277 46.0594 20.6568C45.9836 20.3123 46.0048 19.9567 46.1211 19.6209C46.206 19.377 46.3414 19.142 46.358 18.8874C46.3918 18.3682 45.9353 17.9339 45.4965 17.5842C44.8391 17.0602 43.8209 16.738 42.928 16.9829Z" fill="#2F2E41"/>
<path d="M80.613 7.41336C80.2197 7.54074 79.5292 7.64493 78.7298 7.72905C76.5562 7.95782 73.5774 8.03902 73.5774 8.03902C73.5774 8.03902 58.2691 9.15274 46.7949 5.01088C46.7949 5.01088 45.126 4.24328 46.6763 3.21067C46.9144 3.05614 47.1678 2.92046 47.4333 2.80524C47.4333 2.80524 47.4397 2.79952 47.4524 2.78888C47.6285 2.64604 47.8189 2.51734 48.0212 2.40433C48.6155 2.06735 49.6193 1.66754 50.8408 1.84863L80.975 6.12379C80.975 6.12379 82.0757 6.93947 80.613 7.41336Z" fill="#F2F2F2"/>
<path d="M74.6083 5.476L80.917 1.54999L83.6977 1.97176L80.9749 6.12373C80.9749 6.12373 74.6807 6.16766 74.6083 5.476Z" fill="#F2F2F2"/>
<path d="M58.7252 3.0911L71.2914 0L73.3171 0.371213L67.6407 2.61085L65.8663 4.35171L58.7252 3.0911Z" fill="#F2F2F2"/>
<path d="M78.7298 7.72907C76.5562 7.95784 73.5774 8.03904 73.5774 8.03904C73.5774 8.03904 58.2691 9.15276 46.7949 5.0109C46.7949 5.0109 45.126 4.2433 46.6763 3.21069L46.6815 3.22957C46.6815 3.22957 49.1572 4.69721 60.9866 5.92264L78.7298 7.72907Z" fill="#F2F2F2"/>
<path d="M76.7097 7.64418L82.3282 9.65606L83.7394 9.51861L80.3788 7.30353C80.3788 7.30353 76.3142 6.54322 76.7097 7.64418Z" fill="#F2F2F2"/>
<path d="M48.7166 3.44449C48.4483 3.44861 47.8342 3.05411 47.4524 2.78891C47.6285 2.64607 47.8189 2.51737 48.0212 2.40436C48.3289 2.61154 48.8768 2.94701 49.1813 2.93506C49.6209 2.9178 49.1201 3.43837 48.7166 3.44449Z" fill="#F2F2F2"/>
<path d="M74.2399 14.5994L70.6329 14.7648L60.4919 8.76678L58.6092 7.65328L57.6942 7.11213C59.41 5.84017 66.4096 7.59393 66.4096 7.59393C66.5436 7.69316 66.5862 7.85797 66.5801 8.03996C66.5685 8.38106 66.3859 8.78253 66.3155 8.92539C66.2986 8.95983 66.2882 8.97921 66.2882 8.97921L74.2399 14.5994Z" fill="#F2F2F2"/>
<path d="M80.613 7.41336C80.2197 7.54074 79.5292 7.64493 78.7298 7.72905C76.5562 7.95782 73.5774 8.03902 73.5774 8.03902C73.5774 8.03902 58.2691 9.15274 46.7949 5.01088C46.7949 5.01088 45.126 4.24328 46.6763 3.21067C46.9144 3.05614 47.1678 2.92046 47.4333 2.80524C47.4333 2.80524 47.4397 2.79952 47.4524 2.78888C47.6285 2.64604 47.8189 2.51734 48.0212 2.40433C48.6155 2.06735 49.6193 1.66754 50.8408 1.84863L80.975 6.12379C80.975 6.12379 82.0757 6.93947 80.613 7.41336Z" fill="#3F3D56"/>
<path d="M74.6083 5.476L80.917 1.54999L83.6977 1.97176L80.9749 6.12373C80.9749 6.12373 74.6807 6.16766 74.6083 5.476Z" fill="#3F3D56"/>
<path d="M58.7252 3.0911L71.2914 0L73.3171 0.371213L67.6407 2.61085L65.8663 4.35171L58.7252 3.0911Z" fill="#3F3D56"/>
<path d="M78.7298 7.72907C76.5562 7.95784 73.5774 8.03904 73.5774 8.03904C73.5774 8.03904 58.2691 9.15276 46.7949 5.0109C46.7949 5.0109 45.126 4.2433 46.6763 3.21069L46.6815 3.22957C46.6815 3.22957 49.1572 4.69721 60.9866 5.92264L78.7298 7.72907Z" fill="#6C63FF"/>
<path d="M76.7097 7.64418L82.3282 9.65606L83.7394 9.51861L80.3788 7.30353C80.3788 7.30353 76.3142 6.54322 76.7097 7.64418Z" fill="#3F3D56"/>
<path d="M48.7166 3.44449C48.4483 3.44861 47.8342 3.05411 47.4524 2.78891C47.6285 2.64607 47.8189 2.51737 48.0212 2.40436C48.3289 2.61154 48.8768 2.94701 49.1813 2.93506C49.6209 2.9178 49.1201 3.43837 48.7166 3.44449Z" fill="#6C63FF"/>
<path d="M74.2399 14.5994L70.6329 14.7648L60.4919 8.76678L58.6092 7.65328L57.6942 7.11213C59.41 5.84017 66.4096 7.59393 66.4096 7.59393C66.5436 7.69316 66.5862 7.85797 66.5801 8.03996C66.5685 8.38106 66.3859 8.78253 66.3155 8.92539C66.2986 8.95983 66.2882 8.97921 66.2882 8.97921L74.2399 14.5994Z" fill="#3F3D56"/>
</svg>
